# xmcd CD database file
#
# Track frame offsets:
#	150
#	15398
#	29670
#	41995
#	54097
#	71886
#	87214
#	106716
#
# Disc length: 1705 seconds
#
# Revision: 0
# Processed by: cddbd v1.5.1PL0 Copyright (c) Steve Scherf et al.
# Submitted via: CDex 1.51
#
DISCID=6006a708
DTITLE=Acoustic Avenue - The Marvelous
DYEAR=2002
DGENRE=Blues
TTITLE0=My Baby Just Cares For Me
TTITLE1=Dream A Little Dream Of Me
TTITLE2=Hallelujah, I Love Her so
TTITLE3=Sway
TTITLE4=What A Wonderful World
TTITLE5=Moondance
TTITLE6=Can't Take My Eyes Off You
TTITLE7=Way Over Wonder
EXTD=YEAR: 2002
EXTT0=
EXTT1=
EXTT2=
EXTT3=
EXTT4=
EXTT5=
EXTT6=
EXTT7=
PLAYORDER=
